HIERARCHY
ROOT hip
{
  OFFSET 0 0 0
  CHANNELS 6 Xposition Yposition Zposition Zrotation Yrotation Xrotation
  JOINT abdomen
  {
    OFFSET 0 20.6881 -0.73152
    CHANNELS 3 Zrotation Xrotation Yrotation
    JOINT chest
    {
      OFFSET 0 11.7043 -0.48768
      CHANNELS 3 Zrotation Xrotation Yrotation
      JOINT neck
      {
        OFFSET 0 22.1894 -2.19456
        CHANNELS 3 Zrotation Xrotation Yrotation
        JOINT head
        {
          OFFSET -0.24384 7.07133 1.2192
          CHANNELS 3 Zrotation Xrotation Yrotation
          JOINT leftEye
          {
            OFFSET 4.14528 8.04674 8.04672
            CHANNELS 3 Zrotation Xrotation Yrotation
            End Site
            {
              OFFSET 1 0 0
            }
          }
          JOINT rightEye
          {
            OFFSET -3.6576 8.04674 8.04672
            CHANNELS 3 Zrotation Xrotation Yrotation
            End Site
            {
              OFFSET 1 0 0
            }
          }
        }
      }
      JOINT rCollar
      {
        OFFSET -2.68224 19.2634 -4.8768
        CHANNELS 3 Zrotation Xrotation Yrotation
        JOINT rShldr
        {
          OFFSET -8.77824 -1.95073 1.46304
          CHANNELS 3 Zrotation Xrotation Yrotation
          JOINT rForeArm
          {
            OFFSET -28.1742 -1.7115 0.48768
            CHANNELS 3 Zrotation Xrotation Yrotation
            JOINT rHand
            {
              OFFSET -22.5879 0.773209 7.07136
              CHANNELS 3 Zrotation Xrotation Yrotation
              JOINT rThumb1
              {
                OFFSET -1.2192 -0.487915 3.41376
                CHANNELS 3 Zrotation Xrotation Yrotation
                JOINT rThumb2
                {
                  OFFSET -3.37035 -0.52449 3.41376
                  CHANNELS 3 Zrotation Xrotation Yrotation
                  End Site
                  {
                    OFFSET -1.78271 -1.18214 1.43049
                  }
                }
              }
              JOINT rIndex1
              {
                OFFSET -7.75947 0.938293 5.60832
                CHANNELS 3 Zrotation Xrotation Yrotation
                JOINT rIndex2
                {
                  OFFSET -2.54057 -0.884171 1.56538
                  CHANNELS 3 Zrotation Xrotation Yrotation
                  End Site
                  {
                    OFFSET -1.62519 -0.234802 1.16502
                  }
                }
              }
              JOINT rMid1
              {
                OFFSET -8.24714 1.18213 3.41376
                CHANNELS 3 Zrotation Xrotation Yrotation
                JOINT rMid2
                {
                  OFFSET -3.10165 -0.590103 1.0647
                  CHANNELS 3 Zrotation Xrotation Yrotation
                  End Site
                  {
                    OFFSET -2.48547 -0.328903 0.83742
                  }
                }
              }
              JOINT rRing1
              {
                OFFSET -8.82822 0.546677 1.51678
                CHANNELS 3 Zrotation Xrotation Yrotation
                JOINT rRing2
                {
                  OFFSET -2.60934 -0.819778 -0.0198488
                  CHANNELS 3 Zrotation Xrotation Yrotation
                  End Site
                  {
                    OFFSET -2.33842 -0.294052 0.168128
                  }
                }
              }
              JOINT rPinky1
              {
                OFFSET -8.27202 -0.0477905 -0.4584
                CHANNELS 3 Zrotation Xrotation Yrotation
                JOINT rPinky2
                {
                  OFFSET -1.82734 -0.647385 -0.700984
                  CHANNELS 3 Zrotation Xrotation Yrotation
                  End Site
                  {
                    OFFSET -1.69225 -0.51767 -0.607171
                  }
                }
              }
            }
          }
        }
      }
      JOINT lCollar
      {
        OFFSET 2.68224 19.2634 -4.8768
        CHANNELS 3 Zrotation Xrotation Yrotation
        JOINT lShldr
        {
          OFFSET 8.77824 -1.95073 1.46304
          CHANNELS 3 Zrotation Xrotation Yrotation
          JOINT lForeArm
          {
            OFFSET 28.1742 -1.7115 0.48768
            CHANNELS 3 Zrotation Xrotation Yrotation
            JOINT lHand
            {
              OFFSET 22.5879 0.773209 7.07136
              CHANNELS 3 Zrotation Xrotation Yrotation
              JOINT lThumb1
              {
                OFFSET 1.2192 -0.487915 3.41376
                CHANNELS 3 Zrotation Xrotation Yrotation
                JOINT lThumb2
                {
                  OFFSET 3.37035 -0.52449 3.41376
                  CHANNELS 3 Zrotation Xrotation Yrotation
                  End Site
                  {
                    OFFSET 1.78271 -1.18214 1.43049
                  }
                }
              }
              JOINT lIndex1
              {
                OFFSET 7.75947 0.938293 5.60832
                CHANNELS 3 Zrotation Xrotation Yrotation
                JOINT lIndex2
                {
                  OFFSET 2.54057 -0.884171 1.56538
                  CHANNELS 3 Zrotation Xrotation Yrotation
                  End Site
                  {
                    OFFSET 1.62519 -0.234802 1.16502
                  }
                }
              }
              JOINT lMid1
              {
                OFFSET 8.24714 1.18213 3.41376
                CHANNELS 3 Zrotation Xrotation Yrotation
                JOINT lMid2
                {
                  OFFSET 3.10165 -0.590103 1.0647
                  CHANNELS 3 Zrotation Xrotation Yrotation
                  End Site
                  {
                    OFFSET 2.48547 -0.328903 0.83742
                  }
                }
              }
              JOINT lRing1
              {
                OFFSET 8.82822 0.546677 1.51678
                CHANNELS 3 Zrotation Xrotation Yrotation
                JOINT lRing2
                {
                  OFFSET 2.60934 -0.819778 -0.0198488
                  CHANNELS 3 Zrotation Xrotation Yrotation
                  End Site
                  {
                    OFFSET 2.33842 -0.294052 0.168128
                  }
                }
              }
              JOINT lPinky1
              {
                OFFSET 8.27202 -0.0477905 -0.4584
                CHANNELS 3 Zrotation Xrotation Yrotation
                JOINT lPinky2
                {
                  OFFSET 1.82734 -0.647385 -0.700984
                  CHANNELS 3 Zrotation Xrotation Yrotation
                  End Site
                  {
                    OFFSET 1.69225 -0.51767 -0.607171
                  }
                }
              }
            }
          }
        }
      }
    }
  }
  JOINT rButtock
  {
    OFFSET -8.77824 4.35084 1.2192
    CHANNELS 3 Zrotation Xrotation Yrotation
    JOINT rThigh
    {
      OFFSET 0 -1.70687 -2.19456
      CHANNELS 3 Zrotation Xrotation Yrotation
      JOINT rShin
      {
        OFFSET 0 -36.8199 0.73152
        CHANNELS 3 Zrotation Xrotation Yrotation
        JOINT rFoot
        {
          OFFSET 0.73152 -45.1104 -5.12064
          CHANNELS 3 Zrotation Xrotation Yrotation
          End Site
          {
            OFFSET -1.1221 -3.69964 12.103
          }
        }
      }
    }
  }
  JOINT lButtock
  {
    OFFSET 8.77824 4.35084 1.2192
    CHANNELS 3 Zrotation Xrotation Yrotation
    JOINT lThigh
    {
      OFFSET 0 -1.70687 -2.19456
      CHANNELS 3 Zrotation Xrotation Yrotation
      JOINT lShin
      {
        OFFSET 0 -36.8199 0.73152
        CHANNELS 3 Zrotation Xrotation Yrotation
        JOINT lFoot
        {
          OFFSET -0.73152 -45.1104 -5.12064
          CHANNELS 3 Zrotation Xrotation Yrotation
          End Site
          {
            OFFSET 1.1221 -3.69964 12.103
          }
        }
      }
    }
  }
}
MOTION
Frames:	8
Frame Time:	0.00833333
-5.8847 81.0333 -14.2994 -149.703318 -76.015997 150.762376 6.722205 1.910678 105.79494 -3.859526 1.659423 -111.018339 -5.814829 35.969531 -144.269329 19.510864 50.302729 155.057474 0.005954 0.0 0.00163 0.00099 0.0 0.003202 -80.166145 68.37113 83.260978 -78.266236 -9.172165 108.862336 16.60004 -9.700262 -120.606945 175.8435 -6.937933 144.162354 -12.926013 12.051611 3.310651 79.709594 -73.223111 10.933378 -83.732677 42.330113 69.989957 -31.02133 41.558305 16.461205 2.100484 -6.305398 -1.080903 -163.754036 -6.170633 143.490602 0.000622 0.06393 0.019024 -148.229204 -76.781363 -171.096119 -23.390163 -36.349612 -22.493388 29.837796 75.036579 5.433961 154.405833 -74.581771 179.296469 -100.090564 30.562072 99.546391 -172.736846 16.74205 -57.14901 -144.397601 -43.316312 -136.034817 166.631167 -4.305116 -89.770624 -10.191936 -56.137435 -15.386094 -88.791248 -75.500285 -40.047555 -141.863203 -65.10735 -78.273844 -170.912603 -68.19362 -135.95052 163.737267 -5.579665 -143.157886 145.12159 1.975963 179.749764 148.280765 -43.040105 170.610455 136.958611 -9.522772 134.261062 -1.622668 -2.757214 2.776792 -0.010733 0.001799 -0.00805 9.828777 -25.975688 -180.0 -19.145856 -43.477971 -114.335795 -30.95839 -62.175013 -102.673376 2.7e-05 0.000177 0.0 22.428382 -30.467024 84.352628 86.152629 40.632983 176.8323 -69.971878 84.413287 129.966354
-7.684699999999999 81.6239 -14.6557 -155.828244 -72.965155 156.008132 9.393791 5.029447 -0.437538 -2.255465 -7.304992 -5.549832 0.53393 16.854827 19.696087 0.145331 -32.85929 0.0453 -0.003811 0.0 -0.003305 -0.001822 -0.0 0.002064 -59.82787 -86.722005 -81.628265 -74.961846 -8.841718 -71.380843 -170.726825 5.453829 -93.101323 -6.748099 14.831214 -0.348078 99.080608 -51.215625 44.801462 -16.388664 -48.120362 -30.905842 37.215346 -57.917973 -0.644059 177.366081 -47.114779 104.354722 -36.03558 51.72327 29.832189 -17.870835 42.260041 14.53531 -145.061044 -3.308991 -178.085631 -153.05464 -18.932604 -176.47404 -12.373274 -24.15879 -11.756125 37.548445 80.87595 -0.571195 33.848575 -85.664993 55.266148 80.771622 -24.309804 99.355305 176.708948 17.908317 90.606469 14.058123 63.324023 -10.306069 7.757475 7.439612 -1.681595 -75.412177 -75.57402 -7.106484 148.885272 -12.610047 -120.244748 159.56303 -10.944255 -119.459703 10.976067 25.789628 -7.641247 163.162681 -4.728973 -143.329308 74.840181 72.96191 -92.82762 -5.746885 14.03124 2.754998 -0.097641 0.258728 -0.089914 128.03416 -30.115127 126.408175 179.963619 75.749403 0.029933 -162.925035 51.239957 -67.880668 -40.28807 34.580328 -101.025186 -122.503277 28.35657 -148.785082 179.990822 75.749937 0.00628 -150.70263 37.076384 -18.207104 -107.84683 75.518982 -104.221881 32.806253 30.51528 -135.444415
-9.363100000000001 81.9516 -14.9123 -159.98695 -70.234071 159.248834 9.142688 5.068632 -0.431944 -1.501566 -7.477904 -5.959054 10.058486 26.226348 96.809701 -39.711774 2.31973 -73.672976 -0.001284 0.0 -0.00113 -0.001284 0.0 -0.00113 -3.768113 17.920944 4.641389 -78.185206 -14.749526 177.759562 -173.28799 7.494587 -92.637945 -7.623655 17.365404 -0.108393 138.4549 -44.581313 71.589316 -20.801831 -47.249168 -22.49764 -145.086196 -5.825892 118.554439 7.605729 4.951422 -8.88109 -8.416919 20.880504 5.644479 -163.656733 -6.188907 143.480688 -145.101251 -1.520661 -178.649244 -66.690843 87.686124 80.079882 -145.254853 12.331963 -141.897377 7.161831 13.319905 1.544736 149.904877 22.421772 -154.975397 121.325274 59.021119 -63.818643 -179.132325 -75.643435 -49.570438 -137.525867 -49.717531 -128.726681 -83.25394 -50.257929 -33.616121 110.994138 35.103056 -74.335109 148.887515 -12.609655 -120.244163 -144.837077 -67.060596 -87.160628 161.517953 -9.304333 -143.625713 -16.070626 -37.018617 0.393365 72.349864 72.975108 -90.217915 -5.141508 27.459881 0.79073 140.975453 -0.020287 138.01676 76.083351 -52.95463 75.953999 0.000227 0.000684 -0.000291 10.258475 -21.37828 26.403912 35.041242 28.643999 47.762717 -34.91995 -49.821811 -104.89041 0.000373 -0.00089 -0.00048 29.557642 -34.153516 45.288856 91.018439 72.345318 6.559411 3.996916 19.851319 -84.415777
-10.6591 81.9782 -14.993799999999998 -161.222118 -68.270832 161.591012 6.459972 1.919781 106.481658 -4.83577 -0.115314 -113.050433 9.985368 25.822257 95.553835 -38.710361 0.864847 -70.537683 0.004407 -0.0 -0.001654 -0.000436 0.0 -0.000139 -158.468074 -30.055611 166.919641 -73.959346 7.227288 -10.000495 -177.773063 17.308086 -91.320644 -9.230075 21.869828 0.432691 175.88006 -21.257475 88.493085 -77.440053 11.701442 23.456142 -46.208708 39.654145 36.316607 88.517266 -62.991566 40.71478 -36.03493 51.723483 29.831998 -163.095729 -4.75632 143.255042 -145.122511 1.89375 -179.723593 -55.222177 87.578498 68.285201 -149.199896 25.858369 -145.263316 -146.421249 7.690381 -140.741593 0.048831 0.292341 -0.065632 -75.170896 19.053365 -7.663118 69.182883 -34.54358 -42.956522 -6.551574 5.370233 -7.511625 5.4344 5.264681 -1.077545 -28.994259 -41.47444 13.384816 108.427993 34.161605 -91.743247 -11.669233 -9.562387 7.405139 -0.539997 -1.590081 0.295487 173.441658 -34.989077 -143.837904 -0.000614 0.063951 -0.018888 156.587168 -34.931714 -175.975199 136.041684 -11.442832 133.394002 126.213301 -29.694273 124.235607 179.996307 75.749637 0.00189 -163.37472 51.727999 171.822657 -14.7232 -48.597256 23.725718 148.960713 -19.601832 -148.977428 179.989503 75.749636 0.007182 -149.549123 31.311817 -16.442375 -68.020261 80.731909 138.988769 -122.361902 15.23356 47.416436
-11.3336 81.7005 -14.6801 -158.288158 -68.941735 160.852111 6.373649 2.650566 81.558805 -5.418429 -2.868261 -88.247069 -7.393856 18.067006 -23.152093 32.168317 -18.224558 55.899711 0.001391 0.0 0.002528 -0.000461 0.0 -0.002894 -14.147232 43.06183 15.995674 8.363266 56.415727 92.798319 74.430508 -1.33061 160.02625 -138.480509 65.440767 115.458545 -169.146228 -6.826267 89.915774 -155.96405 0.815934 80.58615 -22.044462 26.609155 15.679502 -0.751676 12.54675 1.672955 2.098948 -6.30561 -1.08147 -3.244533 17.365972 3.30086 -145.118821 0.227212 -179.198377 -156.281943 63.711909 172.358169 -150.034134 28.96656 -145.934105 22.403813 58.807122 5.978447 -0.162845 -0.990123 0.218021 -75.157803 10.712473 -4.596138 18.2032 -39.231533 -80.404856 4.383182 40.775629 -5.152062 166.631757 -4.304725 -89.771325 137.193801 7.633397 -67.888324 -179.291881 -59.501834 -116.316641 -174.843419 -53.77194 -106.915239 36.036248 51.723664 -29.830734 167.881611 -19.502281 -144.187288 -0.000851 -0.06095 0.018464 154.230569 12.766116 -170.104124 130.652477 -21.111743 128.240703 147.497153 13.479241 142.332045 -0.002195 -0.000338 -0.003292 12.025154 -20.948182 -119.150546 -38.87232 -21.272934 28.757434 168.350626 23.722727 -68.08438 -179.997318 75.748896 -0.001373 -150.898229 27.841263 85.994436 87.997102 -3.214376 -4.53686 -35.185353 48.200339 -38.441592
-12.7554 81.75789999999999 -14.6563 -157.245925 -67.229985 160.621974 6.925862 1.473904 94.700111 -5.44597 -1.771195 -100.97978 1.258363 16.152417 23.766165 0.16389 -30.64171 4.71313 -0.004208 -0.0 0.004051 -9.8e-05 0.0 -0.003407 -13.946817 42.750524 15.784055 -81.314669 -13.362503 149.144834 12.521054 -12.75722 -122.594864 174.86975 -10.488647 143.951033 -103.19964 36.331454 60.111495 8.744318 -25.605479 24.894026 -77.666594 43.029344 64.538973 87.70902 -64.891029 40.45191 -39.288538 53.365973 32.878456 -171.962619 -31.378033 143.983948 -72.758005 -72.143232 -89.772224 -58.671359 -82.277581 -84.581449 -25.536379 -38.08796 -24.598068 -9.062249 -25.35515 -11.290977 29.636928 58.070922 -32.037399 106.350334 -0.037884 -116.76897 171.678252 58.571092 90.313979 10.997672 55.459903 -7.221563 -83.254021 -50.25702 -33.616544 15.605558 -37.950714 28.728381 22.046972 26.608054 -15.680266 -14.558388 -9.165353 1.957918 10.91652 25.681076 -7.590919 163.164947 -4.729838 -143.323595 145.118932 0.310072 179.225788 73.709781 -78.003808 95.20706 146.18522 15.331477 142.712934 126.631669 -29.694966 124.084444 -179.997421 75.75084 -0.002661 -161.008543 55.472292 -15.616396 5.453723 45.7799 -141.443647 -155.011045 27.755218 -125.347884 179.96106 75.750167 0.03204 -148.674871 26.433778 -32.124443 -78.058384 65.857394 165.670229 -36.690905 47.060913 -40.639864
-14.2047 81.8683 -14.4703 -157.153167 -65.800836 161.399061 12.537255 1.168784 -80.703652 5.373984 -3.481022 75.484309 7.360697 19.333646 61.562827 -25.180422 -20.069472 -36.399269 -0.001746 0.0 -0.000332 -0.001134 0.0 -0.00048 -155.460355 -3.227719 161.777691 59.756018 -70.638822 131.337126 50.987885 -80.816508 138.618765 -10.864398 25.653805 1.024837 -178.927461 -16.45371 89.421932 107.342794 -68.460436 81.903465 -173.764179 -52.872896 119.822619 87.281798 -68.527842 32.016721 -36.036218 51.722763 29.833176 0.105118 9.336776 1.582715 0.001796 0.063927 0.019012 -156.4903 -25.093167 174.785442 0.099889 0.258099 0.091264 3.647474 3.345989 1.005265 -0.163339 -0.989987 0.21891 -72.423686 18.106446 -3.361084 -144.006993 56.878352 -81.284714 -158.188778 -26.370712 -145.018927 89.135628 38.427478 -50.299566 -22.729193 -28.139401 -22.195227 108.427499 34.161064 -91.743053 166.599273 -15.226248 -116.221289 159.364299 -2.685697 -142.597277 -86.524483 -77.96888 -57.783105 145.098047 -1.605238 178.624124 -11.729441 58.789881 1.661798 26.563846 -38.860635 25.606676 -2.196744 -2.73765 1.174721 0.003743 -8e-05 -0.0 11.024321 -17.970004 32.271228 21.124551 28.200557 -63.946417 -16.226186 -33.146667 31.232146 -179.989862 75.749423 -0.008342 -149.134417 24.583098 -13.362424 -35.038096 81.890923 133.103525 -1.422653 -31.655327 -92.312147
-15.7315 82.0018 -14.1954 -157.808161 -64.356149 162.98413 11.099622 2.244702 0.027735 -0.34122 -7.861271 -4.63314 2.779889 15.876447 32.194782 -5.254241 -29.412499 -2.933186 -0.002462 -0.0 0.003056 0.002885 0.0 0.001105 -83.951359 68.258162 87.085785 -129.285709 -18.320449 96.09456 -111.341928 45.732402 -141.697565 4.014847 -19.389714 -0.131791 -155.112613 6.917928 87.738455 -62.369945 -7.115385 24.266386 -117.617821 28.168317 99.447524 171.711471 -47.491806 109.364301 -12.843062 28.997094 9.149759 -42.01826 58.549268 36.16167 -145.112849 -0.668241 -178.917686 -134.371415 -64.723366 -156.396367 16.513705 57.859412 12.549238 -22.864973 -38.907392 -22.927701 6.25104 26.219354 -7.46714 -121.96508 -57.7665 -49.875397 15.526564 10.814548 -102.029143 3.499389 36.014733 -4.425099 179.372968 -16.8773 -89.360072 176.450011 -12.792218 -97.098391 1.161607 1.860749 -0.67028 -87.283084 -60.121045 -36.080628 36.036842 51.722435 -29.833691 -3.603986 -0.580847 0.009107 145.122002 1.97457 179.748592 -10.104394 0.38228 8.945448 145.173089 12.068436 141.821432 128.056554 -27.853814 125.447096 179.995948 75.750037 0.003575 -159.347897 56.467263 -17.215763 -1.123756 39.448799 -85.818866 175.40356 -14.199991 -84.720103 179.995948 75.750037 0.003575 -150.801197 21.562994 100.261816 74.461456 -16.797196 -57.777245 -65.29549 -0.101498 1.313492
